<?xml version="1.0" encoding="UTF-8"?><svg id="Layer_1" xmlns="http://www.w3.org/2000/svg" width="1430.91" height="925.16" viewBox="0 0 1430.91 925.16"><defs><style>.cls-1{fill:#f4b3cb;}.cls-2{fill:#ec80a9;}.cls-3{fill:#ed1c24;}.cls-4{fill:#b65245;}.cls-5{fill:#c36b2c;}.cls-6,.cls-7{fill:#8ea348;}.cls-8{fill:#bd96c5;}.cls-9{fill:#aea296;}.cls-10{fill:#a49e46;}.cls-11{fill:#c8dbe1;}.cls-12{fill:#e07c02;}.cls-13{fill:#c87d73;}.cls-14{fill:#b1607f;}.cls-15{fill:#6d93ba;}.cls-16{fill:#725078;}.cls-17{fill:#28129b;}.cls-18{fill:#3c4e26;}.cls-19{fill:#78354e;}.cls-20{fill:#6b7a36;stroke:#4d6038;}.cls-20,.cls-21,.cls-22,.cls-23,.cls-7{stroke-miterlimit:10;}.cls-21{fill:#7d7c8f;}.cls-21,.cls-22{stroke:#8b8b94;}.cls-22{fill:#bcbcd1;}.cls-23{fill:#caa202;stroke:#bf970a;}.cls-7{stroke:#9abf6f;}</style></defs><path class="cls-21" d="m1161.41,411.08c0,229.47-218.03,405-447.5,405s-502.5-175.53-502.5-405c0-86.04,62-200,62-200,16.56-26.41,69.6-10.4,183-90C604.96,16.82,661.5,8.88,705.41,6.08c141-9,247.55,82.99,275,106,97.79,81.94,166.32,70.85,201,127,0,0-20,93.68-20,172Z"/><path class="cls-20" d="m522.07,64.06c.14,1.3.7,8.12,1.72,8.14.74.02,1.29-3.54,2.34-8.99,2.6-13.3,3.94-19.96,6.3-20.46,3.49-.73,7.96,8.3,8.25,8.88.79,1.63,2.92,6.14,2.59,12.21-.55,9.73-6.77,11.92-6.3,20.46.28,5.08,2.8,9.9,4.19,9.75,1.24-.13,1.16-4.24,2.34-8.99,1.47-5.83,3.86-8.72,14.44-22.18,11.05-14.07,12.54-16.14,13.68-15.66,2.43,1.03.07,12.39-2.23,19.59-2.84,8.9-6.99,15.79-10.36,21.33-7.19,11.81-11.54,15.42-10.36,21.33.73,3.61,3.37,7.35,5.8,7.28,2.68-.08,4.34-4.82,6.41-9.86,0,0,4.47-10.85,15.18-28.71,3.16-5.27,11.67-19.47,15.29-18.12,3.37,1.25,1.16,15.37.24,21.2-.98,6.21-1.8,11.55-4.69,18-2.92,6.54-4.86,7.27-14.44,22.18-5.1,7.93-6.53,10.79-5.56,13.92,1.29,4.15,6.45,7.47,9.86,6.41,2.91-.9,3.96-4.77,4.82-7.39,5.16-15.59,13.15-14.65,22.45-34.51,5.06-10.81,5.25-16.52,7.16-16.4,2.94.2,6.29,13.81,3.56,26.88-1.92,9.16-6.31,15.64-11.96,23.78-10.82,15.6-19.78,21.09-17.63,27.11.69,1.97,3.21,4.27,8.25,8.88,3.41,3.13,4.23,3.34,4.93,3.21,2.43-.43,2.7-4.99,5.56-13.92,2.44-7.6,4.92-12.65,5.56-13.92,3.08-6.15,5.87-9.84,8.01-12.32,2.55-2.98,5.6-6.51,7.28-5.8,1.87.8-.33,5.88.98,14.68.98,6.57,2.75,7.43,2.59,12.21-.04,1.14-.28,4.71-3.95,11.47-6.66,12.25-13.41,14.35-12.83,19.72.34,3.22,2.96,4.19,8.25,8.88,5.21,4.61,9.26,10.34,17.38,21.82,8.3,11.74,12.45,17.61,13.3,22.69,2.05,12.07-3.84,21.87-5.43,24.52-4.85,8.08-13.38,15.72-16.16,14.05-2.61-1.56,2.48-9.76,2.97-26.13.17-5.68.34-13.49-2.7-22.8-4.27-13.13-12.19-20.87-15.77-24.3-3.72-3.56-7.03-6.65-12.32-8.01-5.49-1.42-9.39,0-14.68.98-11.03,2.06-19.88.71-27.73-.5-14.47-2.21-28.37-8.59-27.86-11.12.05-.27.41-1.05,8.14-1.72,9.52-.83,14.41-.15,21.2-.24,6.43-.07,19.3-.26,20.35-4.3.65-2.54-3.51-5.88-5.8-7.28-3.75-2.28-7.53-2.34-8.99-2.34-11.29-.06-21.37.95-25.28,1.09-17.47.66-33.62-11.07-32.79-14.31.2-.74,1.28-1.04,8.14-1.72,23.85-2.37,33.4-2.83,33.4-2.83,7.29-.35,11.5-.48,12.21-2.59.74-2.18-2.8-5.21-3.32-5.67-4.36-3.72-9.87-3.92-11.47-3.95-16.96-.36-59.2,1.49-59.55-.15-.16-.79,8.96-4.5,21.95-6.78,20-3.51,33.81-.95,35.01-5.28.52-1.86-1.45-4.49-3.32-5.67-2.53-1.58-5.53-.95-6.54-.74,0,0-.9.18-35.01,5.28-10.26,1.54-22.67,3.22-32.66-3.71-.55-.37-6.73-4.73-5.8-7.28,1.04-2.83,9.71,0,25.28-1.09,6.88-.48,14.08-2.33,28.47-6.02,4.15-1.06,9.85-2.62,9.75-4.19-.04-.71-1.21-1.22-2.46-1.6-10.01-3.09-21.2.24-21.2.24-18.46,5.5-44.11-10.23-43.39-14.2.61-3.42,21.98-4.71,37.48-3.68,6.56.44,13.76,1.4,14.68-.98.86-2.23-4.35-6.13-5.8-7.28-17.09-13.4-37.36-53.94-31.65-59.18,6.23-5.7,48.11,26.38,50.28,46.75l-.02-.09Z"/><path class="cls-3" d="m1290.28,398.72c4.24-6.99,11.78-17.03,24.22-22.49,21.18-9.31,35.92,3.65,53.64-6.92,8.39-5.02,13.1-13.72,22.49-31.15,0,0,2.54-4.93,13.84-32.88h0c3.65-14.09,6.56-17.34,8.65-17.3,6.04.12,13.17,27.93,8.65,53.64-1.7,9.62-3.58,20.4-12.11,29.42-11.89,12.58-28.01,12.58-27.69,17.3.42,5.85,25.47,10.24,25.96,10.38h0c10.85-.85,20.23,1.52,22.49,6.92,2.68,5.88-6.49,19.36-19.03,24.22-20.09,7.79-42.79-8.88-51.91-15.57-10.09-7.41-16.78-15.38-20.76-20.76"/><path class="cls-1" d="m169.02,350.27c5.88-14.66-101.9-49.25-109.01-115.93-2.2-20.63,5.1-45.35,20.76-53.64,27.25-14.41,82.81,19.48,112.11,58.55,8.29,11.06,15.76,24.24,19.4,22.77,6.32-2.54-15.97-42.22-3.46-81.33,8.24-25.76,33.29-56.62,65.75-57.1,35.09-.52,60.87,34.71,69.21,60.56,13.65,42.34-10.42,87.76-20.76,107.28-6.85,12.93-16.3,27.2-15.57,27.69,1.35.9,28.22-52.59,83.06-84.79,15.99-9.38,37.88-22.23,51.91-13.84,18.12,10.83,16.58,53.14,3.46,83.06-7.34,16.75-25.76,35.04-62.29,70.94h0c33.17,44.28,38.86,51.62,43.26,64.02,9.85,27.82,9.74,71.58-12.11,86.52-29.59,20.23-97.4-13.48-119.39-58.83-10.61-21.91-19.03-64.06-19.03-64.02h0c2.99,105.38-15.57,131.51-15.57,131.51-4.45,6.26-20.85,29.35-39.8,27.69-27.98-2.46-54.99-58.36-53.64-107.28.48-17.65,4.57-30.78,0-32.88-10.52-4.84-32.72,64.54-77.87,72.67-34.45,6.21-82.26-23.24-88.25-64.02-4.01-27.34,11.37-55.72,32.88-70.94,50.39-35.66,129.76,4.33,134.97-8.65h0Z"/><path class="cls-7" d="m197.43,638.69c-20.47.57-55.73,39.82-50.53,46.46,4.78,6.09,46.77-10.94,61.48-26.92,1.25-1.37,5.54-6.25,7.7-5.21,2.3,1.11.78,8.2-.17,14.71-2.23,15.38-2.63,36.77.74,37.65,3.91,1.02,21.58-23.31,17.55-42.13,0,0-2.44-11.42,1.42-21.16.48-1.21,1.09-2.35,1.8-2.34,1.57.03,2.68,5.83,3.41,10.04,2.56,14.64,3.84,21.96,3.79,28.86-.14,15.59-3.63,24.02-.88,25.28,2.46,1.12,7.3-4.71,7.7-5.21,7.7-9.41,6.99-21.92,6.26-32.27-2.42-34.4-2.53-35.32-2.53-35.32-.12-1.02-.52-4.07,1.25-6.45,1.32-1.78,4.1-3.53,5.92-2.87,4.22,1.52.59,15.11,2.53,35.32,1.26,13.12,4.24,22.51,5.04,22.41,1.66-.22,3.11-42.48,4.81-59.35.16-1.59.78-7.08,4.83-11.13.48-.48,3.79-3.77,5.92-2.87,2.04.87,1.85,5.07,1.63,12.37,0,0-.29,9.57.19,33.53.14,6.89.35,7.99,1.07,8.25,3.17,1.07,16.13-14.1,16.84-31.56.16-3.89-.05-14.03.88-25.28.12-1.45.48-5.21,3.05-8.79,1.56-2.18,5.23-6.06,7.7-5.21,3.96,1.37,3.11,14.21,2.7,20.61-.45,6.78-1.51,11.59-1.42,21.16.07,7.77.8,8.17,1.07,8.25,2.47.71,9.91-12.67,13.25-26.91,1.82-7.73,3.84-16.46,2.68-27.62-.57-5.35-1.66-9.34.17-14.71,1.76-5.16,5.12-8.22,8.96-11.66,3.69-3.3,12.04-10.57,25.45-13.83,9.52-2.3,17.3-1.52,22.94-.92,16.28,1.76,24.05,7.49,25.82,5,1.89-2.65-5.07-11.75-12.74-17.2-2.53-1.8-11.84-8.43-24.03-7.34-5.12.45-11.3,4.14-23.65,11.49-12.08,7.2-18.12,10.78-23.12,15.61-5.09,4.91-6.26,7.44-9.5,7.53-5.4.16-6.97-6.73-18.65-14.33-6.45-4.19-10-4.71-11.13-4.83-4.74-.55-5.74,1.16-12.37,1.63-8.88.62-13.76-1.97-14.71-.17-.85,1.61,2.44,4.91,5.21,7.7,2.3,2.32,5.76,5.42,11.66,8.96,1.21.73,6.06,3.6,13.44,6.63,8.69,3.55,13.2,4.17,13.44,6.63.07.69-.21,1.51-3.58,4.67-5,4.65-7.49,6.99-9.5,7.53-6.18,1.66-10.95-7.7-25.64-19.71-7.68-6.28-13.79-11.16-22.77-13.79-12.82-3.74-26.65-1.47-27.08,1.45-.28,1.9,5.4,2.53,15.78,8.41,19.07,10.81,17.51,18.72,32.65,25.09,2.54,1.07,6.32,2.42,6.99,5.38.8,3.5-2.92,8.36-7.16,9.33-3.2.73-5.94-.92-13.44-6.63-14.1-10.71-14.69-12.68-20.99-16.13-6.21-3.37-11.47-4.64-17.58-6.09-5.74-1.37-19.64-4.67-21.16-1.42-1.63,3.5,11.85,13.1,16.87,16.66,16.97,12.08,27.44,17.37,27.44,17.37,4.88,2.46,9.47,4.48,9.33,7.16-.12,2.42-4.05,4.78-7.7,5.21-5.99.71-9.24-3.91-20.45-12.01-5.24-3.79-11.8-8.46-20.45-12.01-6.99-2.86-18.13-6.11-19.36-3.75-.59,1.11,1.37,2.75,14.53,14.88,12.58,11.59,15.28,14.22,20.99,16.13,4.64,1.56,8.76,1.78,8.79,3.05.03,1.4-4.95,3.53-10.04,3.41-8.55-.19-10.24-6.58-19.9-7.87-6.02-.81-10.68.95-12.37,1.63-.61.24-9.97,4-9.5,7.53.31,2.39,6.85,4.26,19.9,7.87,5.35,1.49,8.86,2.32,8.79,3.05-.1,1-6.96,1.04-8.25,1.07v.03Z"/><path class="cls-17" d="m415.99,468.04c-7.7,12.63-145.02-54.61-145.02-54.61h0s-27.86-14.47-35.89-35.07c-6.73-17.25-1.45-43.66,16.51-54.04,13.46-7.79,28.19-3.17,29.33-2.79,13.22,4.38,19.74,15.59,24.74,24.19,8.12,13.95,5.71,19.67,11.37,30.45,8.39,16.02,23.07,21.25,37.05,28.93,36.87,20.28,66.03,56.15,61.91,62.92v.02Z"/><path class="cls-2" d="m1108.63,364.2c5.88-14.66-101.9-49.25-109.01-115.93-2.2-20.63,5.1-45.35,20.76-53.64,27.25-14.41,82.81,19.48,112.11,58.55,8.29,11.06,15.76,24.24,19.4,22.77,6.32-2.54-15.97-42.22-3.46-81.33,8.24-25.76,33.29-56.62,65.75-57.1,35.09-.52,60.87,34.71,69.21,60.56,13.65,42.34-10.42,87.76-20.76,107.28-6.85,12.93-16.3,27.2-15.57,27.69,1.35.9,28.22-52.59,83.06-84.79,15.99-9.38,37.88-22.23,51.91-13.84,18.12,10.83,16.58,53.14,3.46,83.06-7.34,16.75-25.76,35.04-62.29,70.94h0c33.17,44.28,38.86,51.62,43.26,64.02,9.85,27.82,9.74,71.58-12.11,86.52-29.59,20.23-97.4-13.48-119.39-58.83-10.61-21.91-19.03-64.06-19.03-64.02h0c2.99,105.38-15.57,131.51-15.57,131.51-4.45,6.26-20.85,29.35-39.8,27.69-27.98-2.46-54.99-58.36-53.64-107.28.48-17.65,4.57-30.78,0-32.88-10.52-4.84-32.72,64.54-77.87,72.67-34.45,6.21-82.26-23.24-88.25-64.02-4.01-27.34,11.37-55.72,32.88-70.94,50.39-35.66,129.76,4.33,134.97-8.65Z"/><path class="cls-20" d="m1153.62,129.37c6-19.59,53.23-43.1,58.26-36.32,4.6,6.23-23.01,42.17-42.34,52.07-1.64.85-7.49,3.69-7.08,6.04.45,2.51,7.7,2.94,14.22,3.75,15.42,1.94,36.15,7.27,36.1,10.75-.05,4.03-28.22,14.59-45.3,5.68,0,0-10.35-5.4-20.76-4.27-1.3.14-2.54.42-2.72,1.11-.4,1.52,4.9,4.14,8.77,5.97,13.43,6.37,20.14,9.55,26.8,11.33,15.07,4.03,24.12,2.91,24.61,5.88.43,2.68-6.47,5.78-7.08,6.04-11.13,4.9-23,.88-32.77-2.58-32.51-11.51-33.36-11.85-33.36-11.85-.95-.4-3.77-1.59-6.56-.52-2.06.8-4.5,3.01-4.34,4.93.35,4.48,14.4,4.6,33.36,11.85,12.32,4.71,20.57,10.09,20.26,10.83-.66,1.54-41.77-8.32-58.49-11.2-1.57-.28-7.03-1.12-12.01,1.7-.61.35-4.65,2.65-4.34,4.93.29,2.2,4.4,3.13,11.49,4.86,0,0,9.29,2.27,32.25,9.14,6.61,1.97,7.61,2.47,7.67,3.24.19,3.34-17.89,11.78-34.92,7.8-3.81-.88-13.51-3.79-24.61-5.88-1.44-.28-5.16-.93-9.27.59-2.51.93-7.23,3.43-7.08,6.04.26,4.17,12.86,6.8,19.15,8.1,6.64,1.38,11.58,1.64,20.76,4.27,7.46,2.13,7.67,2.96,7.67,3.24.02,2.58-14.85,6.19-29.47,5.61-7.94-.31-16.89-.67-27.32-4.79-5-1.97-8.57-4.1-14.22-3.75-5.45.33-9.29,2.73-13.62,5.52-4.17,2.68-13.41,8.77-20.11,20.85-4.76,8.57-6.07,16.27-6.99,21.87-2.63,16.16.8,25.18-2.06,26.21-3.05,1.11-9.97-8.01-13.19-16.87-1.06-2.91-4.97-13.65-.66-25.11,1.8-4.83,6.99-9.79,17.37-19.74,10.16-9.72,15.23-14.59,21.21-18.12,6.09-3.6,8.84-4.05,9.79-7.15,1.59-5.16-4.64-8.51-8.84-21.8-2.32-7.34-1.87-10.88-1.7-12.01.74-4.72,2.65-5.23,4.86-11.49,2.96-8.39,1.76-13.79,3.75-14.22,1.78-.38,4.1,3.67,6.04,7.08,1.63,2.84,3.67,6.99,5.52,13.62.38,1.37,1.85,6.8,2.8,14.73,1.11,9.31.5,13.84,2.8,14.73.66.26,1.51.21,5.45-2.21,5.83-3.56,8.74-5.35,9.79-7.15,3.25-5.5-4.5-12.6-12.15-29.97-4-9.07-7.08-16.27-7.22-25.63-.19-13.36,5.69-26.08,8.62-25.71,1.9.24,1,5.88,3.91,17.46,5.35,21.27,13.38,21.87,15.47,38.15.35,2.73.64,6.73,3.32,8.17,3.15,1.7,8.84-.59,10.9-4.41,1.56-2.89.69-5.97-2.8-14.73-6.56-16.46-8.32-17.55-9.95-24.52-1.61-6.89-1.4-12.29-1.18-18.57.21-5.9.73-20.18,4.27-20.76,3.81-.64,9.46,14.92,11.56,20.69,7.11,19.57,9.43,31.08,9.43,31.08,1.07,5.35,1.8,10.31,4.41,10.9,2.37.54,5.68-2.63,7.08-6.04,2.28-5.57-1.3-9.95-6.11-22.91-2.25-6.07-5.02-13.64-6.11-22.91-.88-7.51-1.04-19.1,1.54-19.66,1.21-.26,2.28,2.06,10.45,17.98,7.82,15.23,9.62,18.51,9.95,24.52.26,4.9-.61,8.91.59,9.27,1.33.42,4.72-3.84,5.97-8.77,2.09-8.29-3.6-11.63-2.28-21.28.83-6.02,3.77-10.04,4.86-11.49.4-.52,6.51-8.53,9.79-7.15,2.21.93,2.27,7.73,2.28,21.28,0,5.55-.14,9.15.59,9.27,1,.17,2.86-6.42,3.24-7.67l-.03.09Z"/><path class="cls-17" d="m1010.03,392.3c7.7,12.63,145.02-54.61,145.02-54.61h0s27.86-14.47,35.89-35.07c6.73-17.25,1.45-43.66-16.51-54.04-13.46-7.79-28.19-3.17-29.33-2.79-13.22,4.38-19.74,15.59-24.74,24.19-8.12,13.95-5.71,19.67-11.37,30.45-8.39,16.02-23.07,21.25-37.05,28.93-36.87,20.28-66.03,56.15-61.91,62.92v.02Z"/><path class="cls-7" d="m980.64,101.76c-5.19-35.33,51.55-107.73,64.56-100.79,11.9,6.35-4.67,83.63-27.7,113.7-1.96,2.56-9.05,11.4-6.61,14.81,2.58,3.62,14.31-1.14,25.19-4.72,25.73-8.48,62.36-15.61,64.87-10.09,2.92,6.4-33.52,44.09-67.09,42.84,0,0-20.35-.76-35.9,8.82-1.92,1.19-3.7,2.58-3.46,3.77.52,2.7,10.81,2.84,18.27,2.84,25.92-.02,38.88-.03,50.7-2.21,26.73-4.93,40.16-13.48,43.15-9.14,2.68,3.89-5.88,13.95-6.61,14.81-13.84,16.04-35.54,18.6-53.54,20.49-59.8,6.23-61.41,6.3-61.41,6.32-1.78.09-7.15.33-10.71,4.1-2.65,2.8-4.83,8.1-3.15,11.02,3.89,6.78,26.11-3.53,61.41-6.32,22.91-1.8,39.94.48,40.01,1.89.12,2.92-72.02,18.17-100.46,26.16-2.68.74-11.92,3.48-17.63,11.66-.69.99-5.35,7.65-3.15,11.02,2.09,3.24,9.26,1.64,21.73-.95,0,0,16.33-3.39,57.64-9.78,11.87-1.83,13.84-1.8,14.48-.64,2.8,5.1-19.36,31.94-49.12,38.43-6.64,1.45-24.1,4.15-43.15,9.14-2.46.64-8.81,2.39-14.17,7.87-3.27,3.34-8.82,10.81-6.61,14.81,3.55,6.38,25.33,1.07,36.22-1.57,11.51-2.8,19.45-6.09,35.9-8.82,13.34-2.21,14.26-1.09,14.48-.64,1.97,4.05-18.74,20.85-42.2,30.87-12.74,5.43-27.11,11.58-46.62,12.93-9.34.64-16.56-.03-25.19,4.72-8.32,4.59-12.58,11.26-17.32,18.9-4.55,7.34-14.53,23.86-16.06,47.88-1.07,17.04,2.6,30.16,5.36,39.68,7.94,27.41,20.11,39.04,16.39,42.83-3.98,4.03-21.7-5.16-33.38-16.68-3.84-3.79-18.03-17.79-19.85-39.05-.76-8.95,3.69-20.66,12.6-44.09,8.7-22.91,13.06-34.36,19.83-44.42,6.9-10.23,10.88-13.01,10.07-18.58-1.35-9.31-13.67-9.95-30.25-27.72-9.15-9.81-11.09-15.75-11.66-17.63-2.37-7.98.26-10.21-.95-21.73-1.61-15.42-7.54-23.03-4.72-25.19,2.53-1.94,9.19,2.7,14.81,6.61,4.67,3.25,11.02,8.27,18.9,17.32,1.63,1.87,8.01,9.31,15.43,21.09,8.72,13.84,11.14,21.42,15.43,21.09,1.23-.09,2.53-.81,6.92-7.56,6.51-9.98,9.76-14.97,10.07-18.58,1-11.11-16.52-16.47-41.58-38.1-13.1-11.3-23.34-20.31-30.56-34.95-10.3-20.89-10.56-45.32-5.68-46.93,3.18-1.06,5.97,8.51,19.21,24.57,24.35,29.5,37.43,24.42,52.91,48.5,2.61,4.05,6.06,10.12,11.33,10.4,6.23.31,13.48-7.53,13.86-15.12.29-5.71-3.37-9.93-15.43-21.09-22.65-20.99-26.23-21.39-34.02-31.18-7.68-9.64-11.42-18.29-15.75-28.34-4.08-9.45-13.95-32.32-8.82-35.9,5.52-3.84,26.06,16.39,33.71,23.93,25.87,25.51,38.12,41.89,38.12,41.89,5.69,7.63,10.54,14.88,15.12,13.86,4.14-.93,6.97-8.39,6.61-14.81-.57-10.49-9.5-14.69-26.77-31.49-8.1-7.87-18.1-17.7-26.77-31.49-7.03-11.14-15.95-29.29-12.29-32.12,1.71-1.33,5.14,1.52,29.92,20.47,23.71,18.12,29.02,21.96,34.02,31.18,4.07,7.51,5.71,14.48,7.87,14.17,2.41-.35,4.57-9.57,2.84-18.27-2.91-14.62-14.38-15.61-19.54-31.8-3.22-10.11-1.59-18.62-.95-21.73.22-1.12,3.86-18.31,10.07-18.58,4.2-.19,9.36,10.47,19.54,31.8,4.17,8.74,6.64,14.52,7.87,14.17,1.7-.48-.31-12.25-.64-14.48l.03-.03Z"/><path class="cls-19" d="m890.12,472.47c40.07,31.61,160.77-19.86,198.18-110.14,22.04-53.19,19.95-131.35-17.91-152.29-43.24-23.91-120.85,33.55-158.19,91.29-35.99,55.63-55.92,144.45-22.08,171.15v-.02Z"/><path class="cls-9" d="m255.81,454.11c-28.91,38.78,13.74,129.9,73.89,177.43,57.07,45.08,154.57,70.43,190.56,29,30.07-34.61,8.25-105.52-22.46-147.03-63-85.19-207.26-105.98-242.01-59.39l.02-.02Z"/><path class="cls-23" d="m968.68,449.56c-46.22,48.61-102.94,139.45-75.36,174.9,32.84,42.19,189.77,11.99,255.12-87.99,37.39-57.22,63-152.27,27.63-179.3-41.49-31.7-152.89,35.07-207.4,92.37v.02Z"/><path class="cls-14" d="m305.71,236.07c-30.82,35.65,19.33,122.2,48.45,160.92,41.63,55.39,121.92,121.63,157.46,100.36,41.6-24.88,31.27-175.23-55.37-240.52-47.38-35.7-124.36-51.06-150.54-20.76h0Z"/><path class="cls-7" d="m428.66,104.08c.08-35.71-66.43-99.25-78.32-90.52-10.87,7.99,16.59,82.1,43.69,108.57,2.3,2.25,10.59,9.99,8.66,13.71-2.03,3.95-14.33.92-25.61-1.07-26.68-4.71-63.95-6.52-65.65-.7-1.98,6.75,39.48,38.84,72.53,32.8,0,0,20.03-3.67,36.8,3.6,2.07.91,4.03,2.02,3.96,3.24-.13,2.75-10.3,4.36-17.68,5.42-25.66,3.69-38.49,5.53-50.49,5.06-27.16-1.06-41.68-7.59-44.02-2.87-2.1,4.24,7.82,12.96,8.66,13.71,16,13.89,37.84,13.32,55.92,12.62,60.08-2.39,61.68-2.55,61.68-2.54,1.78-.17,7.12-.7,11.19,2.53,3.02,2.4,5.94,7.32,4.69,10.46-2.88,7.27-26.35.24-61.68,2.54-22.93,1.5-39.46,6.19-39.32,7.59.3,2.91,73.88,7.68,103.17,11.52,2.76.35,12.3,1.74,19.12,9.02.83.88,6.39,6.8,4.69,10.46-1.61,3.5-8.93,2.95-21.65,2.17,0,0-16.65-1.02-58.44-1.43-12.01-.12-13.96.2-14.43,1.44-2.04,5.45,23.73,28.84,54.12,31.01,6.78.49,24.45.66,44.02,2.87,2.52.28,9.06,1.1,15.15,5.76,3.71,2.84,10.28,9.44,8.66,13.71-2.6,6.83-24.92,4.69-36.07,3.62-11.79-1.13-20.12-3.25-36.8-3.6-13.52-.28-14.27.96-14.43,1.44-1.37,4.29,21.53,17.95,46.19,24.51,13.38,3.56,28.49,7.58,47.99,6.12,9.34-.7,16.38-2.4,25.61,1.07,8.89,3.35,14.06,9.35,19.85,16.22,5.55,6.61,17.8,21.54,22.74,45.09,3.5,16.72,1.75,30.22.37,40.04-3.94,28.26-14.31,41.51-10.09,44.73,4.52,3.42,20.74-8.21,30.65-21.28,3.26-4.3,15.3-20.18,14.06-41.49-.53-8.96-6.6-19.92-18.78-41.83-11.89-21.43-17.85-32.14-25.98-41.12-8.3-9.13-12.63-11.32-12.63-16.95,0-9.41,12.11-11.8,25.97-31.76,7.66-11.02,8.72-17.17,9.02-19.12,1.2-8.23-1.72-10.07-2.17-21.65-.61-15.49,4.17-23.87,1.07-25.61-2.78-1.56-8.71,3.99-13.71,8.66-4.16,3.89-9.73,9.76-16.22,19.85-1.34,2.08-6.6,10.36-12.26,23.08-6.65,14.95-7.96,22.8-12.26,23.08-1.23.09-2.62-.44-7.93-6.49-7.87-8.95-11.8-13.42-12.63-16.95-2.58-10.85,14-18.67,35.7-43.66,11.35-13.06,20.2-23.45,25.24-38.97,7.2-22.14,3.96-46.36-1.1-47.26-3.3-.59-4.69,9.28-15.49,27.07-19.87,32.68-33.55,29.52-45.43,55.57-2.01,4.38-4.55,10.88-9.73,11.91-6.12,1.2-14.42-5.52-15.88-12.98-1.11-5.61,1.92-10.31,12.26-23.08,19.41-24.01,22.9-24.92,29.21-35.73,6.22-10.64,8.69-19.74,11.53-30.3,2.69-9.93,9.18-33.99,3.6-36.8-6.01-3.01-23.45,19.95-29.94,28.51-21.95,28.94-31.73,46.91-31.73,46.91-4.54,8.37-8.3,16.24-12.98,15.88-4.23-.33-8.1-7.31-8.66-13.71-.94-10.46,7.3-15.9,21.99-35,6.89-8.95,15.38-20.11,21.99-35,5.36-12.03,11.6-31.28,7.56-33.54-1.89-1.07-4.87,2.24-26.68,24.54-20.87,21.32-25.58,25.88-29.21,35.73-2.95,8.01-3.58,15.15-5.76,15.15-2.43,0-5.89-8.82-5.42-17.68.79-14.89,12-17.5,14.78-34.27,1.74-10.46-1.09-18.65-2.17-21.65-.38-1.08-6.44-17.57-12.63-16.95-4.19.41-7.77,11.7-14.78,34.27-2.88,9.25-4.5,15.32-5.76,15.15-1.75-.24-1.44-12.17-1.44-14.43l-.04-.03Z"/><path class="cls-3" d="m122.33,335.61c-2.79-6.54-8.05-16.13-18.08-22.37-17.1-10.64-31.41-1.3-45.35-12.6-6.61-5.35-9.59-13.44-15.52-29.62,0,0-1.59-4.57-7.86-30.04h0c-1.4-12.58-3.5-15.75-5.31-15.97-5.23-.66-14.79,22.43-14.09,45.14.26,8.5.55,18.01,6.8,26.84,8.69,12.3,22.58,14.31,21.72,18.32-1.09,4.98-23.2,5.66-23.64,5.73h0c-9.24-2.08-17.61-1.19-20.23,3.18-3.05,4.72,3.2,17.48,13.39,23.22,16.33,9.19,37.96-2.35,46.65-6.99,9.6-5.12,16.37-11.16,20.45-15.31"/><path class="cls-16" d="m1286.89,269.41c-3.86,1.23,4-4.69,9.22-19.76,3.1-8.91-.73-11.84.54-19.48,1.56-9.53,8.63-11.87,13.39-10.97,6.56,1.25,10.61,10.09,5.04,23.88-5.55,13.79-20.75,23.95-28.19,26.34h0Z"/><path class="cls-15" d="m915.33,809.92c-25.44-8.53,39.59-9.34,126.49-69.23,51.34-35.37,42.43-65.87,79.02-101.76,45.59-44.71,92.47-29.5,114.29-6.09,30.11,32.29,17.06,95.22-66.53,146.99-83.61,51.77-204.25,46.55-253.29,30.09h.02Z"/><path class="cls-5" d="m1207.41,606.17c-4.72-2.41,8.01-.67,26.73-9.86,11.06-5.42,10.21-11.65,18.39-17.6,10.21-7.42,18.93-3.08,22.51,2.13,4.95,7.18.57,19.1-17.27,26.8-17.84,7.7-41.27,3.18-50.37-1.45v-.02Z"/><path class="cls-10" d="m158.1,453.9c-.73-7.67-5.19,10.45-27.6,30.82-13.24,12.03-21.18,7.54-33.59,15.43-15.47,9.81-14.28,23.91-9.17,31.53,7.06,10.52,25.49,10.99,45.4-8.98,19.93-19.97,26.35-54.02,24.95-68.8Z"/><path class="cls-11" d="m196.41,233.3c-1.42,4.45-1.71-6.87-12.35-21.87-6.28-8.86-11.58-7.23-17.91-13.53-7.89-7.84-5.36-16.04-1.33-19.9,5.55-5.31,16.54-3.2,25.76,11.25,9.22,14.43,8.58,35.45,5.83,44.04v.02Z"/><path class="cls-16" d="m568.73,830.1c24.24-7.11-36.93-10.24-116.56-69.78-47.03-35.16-37.55-63.56-70.68-98.66-41.3-43.76-85.96-31.15-107.37-9.9-29.52,29.29-19.54,89.01,57.27,140.8,76.81,51.79,190.56,51.27,237.33,37.57v-.02Z"/><path class="cls-10" d="m1145.23,603.13c-9.08-2.49,13.69-4.05,42.96-26.75,17.29-13.41,13.57-23.91,25.7-37.22,15.11-16.58,31.82-12.16,39.94-4.4,11.18,10.71,7.86,33.03-20.42,52.83-28.27,19.8-70.65,20.35-88.18,15.54Z"/><path class="cls-13" d="m1189.09,331.76c11.49-10.94,32.96-9.43,41.06,1.92,6.52,9.12-.64,17.53,6.85,35.37,4.64,11.07,10.05,14.17,8.55,19.12-2.04,6.71-14.97,10.8-24.81,6.7-10.16-4.24-7.94-13.43-22.25-27.72-9.72-9.72-16.14-10.87-17.11-18.17-1.14-8.51,6.4-15.97,7.7-17.22h.02Z"/><circle class="cls-22" cx="722.41" cy="470.08" r="351"/><path class="cls-9" d="m948.78,787.22c-20.38,2.94,23.9-20.11,62.76-91.22,22.94-42.01,6.3-59.84,18.96-97.11,15.78-46.43,53.17-52.22,76.24-43.73,31.8,11.71,44.64,59.37,5.24,123.79-39.4,64.42-123.89,102.58-163.22,108.27h.02Z"/><path class="cls-11" d="m840.27,828.28c-21.98,2.08,26.65-20.25,72.02-94.34,26.79-43.76,9.91-63.73,25.45-102.94,19.36-48.87,59.7-53.09,83.94-42.77,33.43,14.22,44.64,65.91-.93,132.79-45.58,66.88-138.06,103.25-180.46,107.25l-.02.02Z"/><path class="cls-8" d="m844.87,824.18c-12.77-4.78,20.26-4.05,65.46-32.95,26.68-17.06,22.7-32.7,41.93-50.28,23.95-21.91,47.48-13.36,58.16-1.09,14.73,16.92,6.99,48.66-36.37,73.49-43.36,24.83-104.53,20.05-129.15,10.85l-.02-.02Z"/><path class="cls-6" d="m792.72,831.12c-15.02-1.04,20.19-10.68,58.95-55.53,22.89-26.49,13.74-41.81,28.55-66.5,18.45-30.75,46.08-29.12,61.25-19.48,20.94,13.29,22.75,49.33-15.35,89.3-38.1,39.97-104.41,54.21-133.39,52.2h-.02Z"/><path class="cls-11" d="m606.41,828.26c23.69.02-30.51-18.98-86.38-93.63-33-44.09-16.96-67.1-37.48-107.47-25.57-50.28-69.09-50.77-93.98-37.32-34.3,18.53-41.13,74.89,14.26,141.82,55.39,66.91,157.86,96.55,203.56,96.61h.02Z"/><path class="cls-8" d="m662.91,803.03c16.09-1.85-22.22-10.49-66.03-56.77-25.89-27.34-16.8-44.23-33.91-70.03-21.32-32.13-50.92-29.04-66.76-17.94-21.84,15.3-22.03,54.11,20.87,95.17,42.9,41.08,114.81,53.12,145.83,49.56v.02Z"/><path class="cls-18" d="m648.82,797.38c11.23-4.07-17.72-3.74-57.07-29.47-23.24-15.19-19.6-28.86-36.29-44.45-20.78-19.41-41.49-12.13-50.96-1.49-13.05,14.69-6.58,42.58,31.22,64.73,37.77,22.15,91.43,18.53,113.1,10.66v.02Z"/><path class="cls-4" d="m663.38,794.21c4.95-8.72-76.64-33.86-80.1-74.84-1.07-12.67,5.26-27.5,17.51-31.96,21.32-7.79,62.88,14.98,84.18,39.92,6.02,7.06,11.35,15.38,14.19,14.62,4.91-1.32-10.99-26.37-.22-49.76,7.08-15.42,27.2-33.31,52.1-32.39,26.91.99,45.63,23.46,51.24,39.56,9.21,26.35-10.61,53.17-19.1,64.7-5.64,7.63-13.31,15.99-12.75,16.32,1,.59,23.19-31.04,66.19-48.64,12.53-5.14,29.69-12.16,40.2-6.51,13.55,7.28,11.11,33.05.17,50.82-6.13,9.95-20.78,20.42-49.85,40.97h0c24.1,28.26,28.26,32.95,31.25,40.7,6.71,17.34,5.33,44.05-11.85,52.34-23.27,11.23-74.25-11.87-89.75-40.37-7.48-13.76-12.68-39.8-12.68-39.78h0c-.85,64.42-15.85,79.68-15.85,79.68-3.6,3.65-16.85,17.13-31.32,15.42-21.37-2.54-40.42-37.69-37.91-67.48.9-10.75,4.41-18.62.99-20.07-7.92-3.34-26.99,38.17-61.84,41.44-26.6,2.51-62.36-17.27-65.74-42.38-2.27-16.84,10.36-33.59,27.3-42.06,39.68-19.88,99.32,7.49,103.7-.24h-.03Z"/><path class="cls-13" d="m668.97,807.67c3.91-7.75-67.66-26.04-72.38-61.31-1.45-10.9,3.39-23.98,13.79-28.36,18.1-7.63,54.99,10.3,74.44,30.96,5.5,5.85,10.47,12.82,12.87,12.04,4.19-1.35-10.61-22.32-2.3-43,5.47-13.62,22.11-29.93,43.66-30.19,23.29-.28,40.42,18.34,45.96,32.03,9.07,22.39-6.92,46.41-13.79,56.72-4.55,6.83-10.81,14.38-10.35,14.64.9.47,18.74-27.81,55.15-44.83,10.61-4.97,25.14-11.77,34.47-7.32,12.03,5.73,11,28.1,2.3,43.92-4.88,8.86-17.1,18.53-41.36,37.51h0c22.03,23.41,25.8,27.29,28.72,33.85,6.54,14.71,6.47,37.84-8.05,45.75-19.64,10.69-64.68-7.13-79.27-31.11-7.04-11.58-12.65-33.86-12.63-33.85h0c1.99,55.72-10.35,69.53-10.35,69.53-2.96,3.3-13.84,15.52-26.42,14.64-18.58-1.3-36.51-30.87-35.61-56.72.33-9.33,3.03-16.27,0-17.39-6.99-2.56-21.72,34.12-51.7,38.43-22.88,3.29-54.63-12.29-58.59-33.85-2.66-14.45,7.54-29.47,21.84-37.51,33.46-18.86,86.15,2.28,89.61-4.57h-.02Z"/><circle class="cls-12" cx="689.85" cy="803.62" r="10.38"/><circle class="cls-12" cx="714.08" cy="801.89" r="8.65"/><circle class="cls-12" cx="718.4" cy="823.52" r="9.52"/><circle class="cls-12" cx="740.03" cy="808.81" r="5.19"/></svg>