<?xml version="1.0" encoding="UTF-8"?><svg id="Layer_1" xmlns="http://www.w3.org/2000/svg" width="1911.93" height="168.52" viewBox="0 0 1911.93 168.52"><defs><style>.cls-1{fill:#c36b2c;}.cls-2{fill:#8ea348;}.cls-3{fill:#bd96c5;}.cls-4{fill:#aea296;}.cls-5{fill:#a49e46;}.cls-6{fill:#c8dbe1;}.cls-7{fill:#6d93ba;}.cls-8{fill:#725078;}.cls-9{fill:#3c4e26;}</style></defs><path class="cls-9" d="m131.63,86.18c9.35,3.23-14.63,3.32-46.87,25.13-19.04,12.88-15.86,24.16-29.47,37.28-16.96,16.35-34.2,10.59-42.17,1.89-11-12-6-35.17,25-54,31-18.83,75.47-16.53,93.51-10.3Z"/><path class="cls-3" d="m214.85,89.18c9.35-3.23-14.63-3.32-46.87-25.13-19.04-12.88-15.86-24.16-29.47-37.28-16.96-16.35-34.2-10.59-42.17-1.89-11,12-6,35.17,25,54,31,18.83,75.47,16.53,93.51,10.3Z"/><path class="cls-4" d="m142.87,97.35c3.54,1.22-5.53,1.26-17.73,9.51-7.2,4.87-6,9.14-11.15,14.1-6.41,6.18-12.93,4.01-15.95.71-4.16-4.54-2.27-13.3,9.46-20.42,11.72-7.12,28.55-6.25,35.37-3.9Z"/><path class="cls-6" d="m110.5,76.54c3.54-1.22-5.53-1.26-17.73-9.51-7.2-4.87-6-9.14-11.15-14.1-6.41-6.18-12.93-4.01-15.95-.71-4.16,4.54-2.27,13.3,9.46,20.42,11.72,7.12,28.55,6.25,35.37,3.9Z"/><path class="cls-7" d="m248.78,86.64c2.99-7.42-9.79,7.17-40.23,15.29-17.97,4.8-23.17-3.13-38.41-1.78-18.98,1.68-24.62,15.27-23.53,24.76,1.49,13.09,18.3,22.32,46.25,13.38,27.95-8.94,50.15-37.33,55.91-51.65Z"/><path class="cls-5" d="m70.64,80.62c4.45-1.95-7.29-1.04-23.94-10.43-9.83-5.55-8.72-11.19-15.91-17.07-8.95-7.32-17.16-3.82-20.72.76-4.91,6.31-1.53,17.45,14.39,25.43s37.6,5.08,46.18,1.31Z"/><path class="cls-1" d="m361.21,83.02c2.17,4.8,1.04-7.91,11.03-26.06,5.9-10.72,12.03-9.58,18.31-17.44,7.83-9.79,3.94-18.64-1.06-22.44-6.9-5.24-18.93-1.46-27.39,15.89-8.46,17.35-5.06,40.8-.88,50.05Z"/><path class="cls-2" d="m261.29,88.26c2.26,8.17-9.45-8.71-40.5-20.87-18.34-7.18-24.75.54-40.62-2.69-19.77-4.03-24.08-18.99-21.81-28.84,3.13-13.59,21.91-21.31,50.25-8.58,28.34,12.73,48.31,45.23,52.68,60.98Z"/><path class="cls-8" d="m352.46,85.03c9.35,3.23-14.63,3.32-46.87,25.13-19.04,12.88-15.86,24.16-29.47,37.28-16.96,16.35-34.2,10.59-42.17,1.89-11-12-6-35.17,25-54,31-18.83,75.47-16.53,93.51-10.3Z"/><path class="cls-6" d="m270.72,73.12c3.56,1.16-3.65-4.34-8.39-18.28-2.8-8.23.73-10.91-.37-17.97-1.38-8.8-7.89-11-12.29-10.2-6.06,1.11-9.84,9.24-4.79,21.99,5.05,12.76,18.98,22.21,25.84,24.46Z"/><path class="cls-4" d="m266.41,80.3c-3.59-1.04,5.46-1.53,17.23-10.38,6.95-5.23,5.54-9.43,10.43-14.64,6.1-6.49,12.72-4.64,15.9-1.51,4.38,4.33,2.93,13.17-8.43,20.87s-28.2,7.66-35.13,5.65Z"/><path class="cls-7" d="m358.43,90.12c-9.18-1.93,13.37-4.85,41.12-29.17,16.39-14.36,12.07-24.59,23.32-38.54,14.02-17.37,30.92-13.99,39.44-6.75,11.76,9.99,9.78,32.37-17.15,53.74-26.93,21.37-69.04,24.44-86.73,20.71Z"/><path class="cls-9" d="m352.14,76.6c.35,7.69-6.6-9.62-31.63-26.68-14.78-10.07-22.02-4.53-35.41-10.61-16.69-7.57-17.47-21.69-13.47-29.95,5.52-11.4,23.71-14.43,46.22,2.58,22.51,17.01,33.61,49.83,34.28,64.66Z"/><path class="cls-2" d="m225.38,129.39c.03-3.36-2.48,3.61-12.17,8.71-5.72,3.01-8.68-.13-13.91,1.25-6.52,1.73-6.62,7.87-4.91,11.9,2.36,5.56,9.63,8.65,18.32,3.33s12.61-18.72,12.66-25.19Z"/><path class="cls-2" d="m454.12,80.78c.24,3.05,2.13-4.12,11.18-12.09,5.34-4.7,8.47-2.87,13.46-5.93,6.22-3.81,5.83-9.42,3.84-12.49-2.74-4.23-10.07-4.53-18.12,3.29s-10.82,21.33-10.36,27.22Z"/><path class="cls-8" d="m453.4,88.72c-7.06-.71,9.67-4.74,28.58-25.3,11.17-12.15,7.08-19.49,14.42-30.91,9.14-14.22,22.13-13.05,29.14-8.29,9.67,6.56,10,23.57-8.53,41.85-18.53,18.28-49.98,24.02-63.6,22.65Z"/><path class="cls-3" d="m448.02,82.26c.41-7.87-6.82,9.81-32.55,27.09-15.19,10.21-22.57,4.49-36.32,10.62-17.13,7.64-18.02,22.08-13.98,30.57,5.57,11.7,24.17,14.92,47.32-2.33,23.15-17.26,34.73-50.78,35.52-65.95Z"/><path class="cls-4" d="m497.35,92.55c3.54,1.22-5.53,1.26-17.73,9.51-7.2,4.87-6,9.14-11.15,14.1-6.41,6.18-12.93,4.01-15.95.71-4.16-4.54-2.27-13.3,9.46-20.42,11.72-7.12,28.55-6.25,35.37-3.9Z"/><path class="cls-9" d="m566.13,79.23c7.88.1-10.23,6.17-29.14,30.72-11.17,14.5-5.94,22.23-12.95,35.55-8.73,16.6-23.2,16.56-31.41,11.97-11.32-6.32-13.33-25.09,5.39-47.07,18.72-21.99,52.92-31.37,68.11-31.17Z"/><path class="cls-6" d="m482.87,109.15c-.67-3.68-2.07,5.28-12.07,16.09-5.9,6.39-9.94,4.55-15.62,8.9-7.08,5.41-5.91,12.18-3.11,15.66,3.86,4.8,12.81,4.24,21.61-6.28,8.81-10.52,10.47-27.28,9.17-34.38Z"/><path class="cls-3" d="m580.96,90.68c-1.08,8.77,8.41-10.44,38.57-27.75,17.81-10.23,25.61-3.24,41.49-9.02,19.78-7.19,21.92-23.29,18.07-33.11-5.31-13.54-25.87-18.62-53.15-1.13-27.28,17.48-42.89,54.08-44.97,71Z"/><path class="cls-1" d="m547.57,77.99c-3.7-.53,5.2-2.27,15.62-12.67,6.16-6.14,4.17-10.1,8.3-15.94,5.14-7.28,11.95-6.37,15.53-3.7,4.94,3.68,4.73,12.64-5.45,21.84s-26.86,11.51-34,10.48Z"/><path class="cls-5" d="m610.26,79.91c.62-5.39-5.1,6.45-23.51,17.23-10.87,6.37-15.7,2.13-25.4,5.76-12.09,4.52-13.32,14.41-10.9,20.41,3.33,8.28,15.97,11.28,32.61.41,16.64-10.87,26.02-33.41,27.2-43.8Z"/><path class="cls-1" d="m546.58,101.43c2.35-1.96-1.46,4.41-.82,16.44.37,7.11,3.87,8.06,5.18,13.77,1.62,7.11-2.66,10.76-6.24,11.48-4.94,1-10.28-4.03-10.32-15.26-.04-11.23,7.68-22.65,12.21-26.44Z"/><path class="cls-1" d="m39.18,91.38c2.83,1.17-4.58.76-14.94,6.92-6.12,3.64-5.33,7.18-9.78,10.99-5.53,4.75-10.76,2.66-13.07-.17-3.18-3.91-1.22-10.98,8.7-16.24,9.92-5.26,23.62-3.75,29.08-1.5Z"/><path class="cls-8" d="m700.63,84.66c-9.49-2.78,14.45-4.01,45.63-27.32,18.41-13.77,14.7-24.88,27.67-38.63,16.17-17.13,33.66-12.19,42.04-3.88,11.55,11.47,7.65,34.85-22.42,55.12-30.07,20.27-74.6,20.07-92.91,14.71Z"/><path class="cls-4" d="m617.38,79.28c-9.23,1.56,13.14,5.37,39.84,30.74,15.77,14.98,11.05,25.01,21.71,39.38,13.29,17.89,30.27,15.2,39.07,8.31,12.13-9.49,11.06-31.9-14.95-54.29-26.01-22.39-67.88-27.15-85.68-24.14Z"/><path class="cls-2" d="m617.71,88.73c-2.69-5.29-.77,8.97-11.07,29.96-6.09,12.39-13.06,11.43-19.74,20.61-8.32,11.44-3.47,21.21,2.37,25.24,8.05,5.55,21.41.66,30.05-19.34,8.64-19.99,3.59-46.25-1.61-56.47Z"/><path class="cls-9" d="m644.95,75.19c-6.77-1.33,9.79-3.7,29.99-21.87,11.93-10.73,8.65-18.22,16.8-28.59,10.16-12.93,22.62-10.6,28.97-5.35,8.75,7.24,7.51,23.74-12.11,39.72-19.62,15.99-50.59,18.66-63.65,16.08Z"/><path class="cls-3" d="m755.51,89.05c-7.87.29,10.38,5.92,29.89,29.99,11.53,14.22,6.49,22.08,13.82,35.22,9.14,16.38,23.6,15.98,31.69,11.2,11.16-6.6,12.71-25.41-6.55-46.93-19.26-21.52-53.68-30.05-68.86-29.49Z"/><path class="cls-1" d="m792.45,77.57c-3.01-.55,4.32-1.71,13.15-9.9,5.22-4.84,3.71-8.14,7.25-12.8,4.42-5.8,9.96-4.86,12.81-2.57,3.93,3.15,3.5,10.48-5.1,17.7-8.59,7.23-22.31,8.62-28.12,7.57Z"/><path class="cls-5" d="m701.11,90.93c-4.55.26,6.07,3.3,17.64,17.01,6.83,8.09,4.01,12.7,8.41,20.22,5.48,9.37,13.84,8.97,18.47,6.11,6.38-3.95,7.06-14.85-4.33-27.07-11.39-12.23-31.4-16.77-40.18-16.26Z"/><path class="cls-6" d="m628.59,93.21c-3.24-1.87,2.68,5,4.47,19.61,1.05,8.63-2.96,10.52-3.32,17.66-.45,8.9,5.47,12.39,9.93,12.5,6.16.16,11.52-7.02,9.2-20.54-2.32-13.52-14.02-25.64-20.28-29.24Z"/><path class="cls-6" d="m728.06,63.57c1.13,3.57,1.4-5.5,9.98-17.47,5.06-7.07,9.3-5.75,14.39-10.76,6.35-6.25,4.35-12.82,1.14-15.93-4.43-4.28-13.24-2.62-20.67,8.9-7.43,11.53-7.01,28.37-4.84,35.25Z"/><path class="cls-7" d="m794.29,94.67c-9.31-1.12,12.89-6,38.4-32.66,15.07-15.75,9.86-25.56,19.85-40.44,12.44-18.54,29.57-16.65,38.7-10.18,12.59,8.92,12.59,31.39-12.37,55.04-24.95,23.65-66.63,30.41-84.58,28.24Z"/><path class="cls-1" d="m369.33,96.96c-1.62-2.6,4.17,2.05,16.17,3.08,7.09.61,8.52-2.72,14.35-3.23,7.26-.63,10.29,4.11,10.51,7.76.31,5.03-5.41,9.63-16.53,8.12-11.13-1.51-21.38-10.72-24.5-15.73Z"/><path class="cls-5" d="m360.87,96.87c-1.65-4.57-1.53,7.21-12.02,23.19-6.2,9.44-11.75,7.95-18.1,14.72-7.91,8.44-4.97,16.86-.64,20.72,5.97,5.32,17.31,2.7,26.34-12.64s7.6-37.17,4.42-45.98Z"/><path class="cls-1" d="m146.02,105.74c.17-4.85-4.1,6.12-19.77,17.06-9.26,6.46-13.87,3.02-22.28,6.95-10.48,4.9-10.87,13.81-8.29,19,3.57,7.15,15.07,8.94,29.16-1.96,14.09-10.9,20.86-31.69,21.18-41.06Z"/><path class="cls-2" d="m815.61,104.04c-5.85,2.41,9.47,1.57,30.88,14.3,12.64,7.52,11.03,14.84,20.22,22.71,11.44,9.81,22.24,5.48,27.01-.37,6.58-8.08,2.51-22.69-17.99-33.55-20.5-10.87-48.82-7.73-60.11-3.08Z"/><path class="cls-5" d="m873.75,93.15c-1.36,5.97,6.52-6.6,28.51-16.41,12.99-5.79,17.87-.44,29.21-3.3,14.13-3.57,16.73-14.5,14.77-21.54-2.71-9.7-16.52-14.64-36.53-4.51s-33.33,34.25-35.96,45.75Z"/><path class="cls-1" d="m883.83,94.71c-5.26-.02,6.76,4.24,19.11,20.87,7.3,9.82,3.71,14.92,8.24,23.91,5.64,11.19,15.31,11.34,20.85,8.37,7.64-4.09,9.2-16.61-3.05-31.52s-34.99-21.58-45.15-21.63Z"/><path class="cls-6" d="m895.73,91.85c-2.66,2.63,5.53-1.27,20.1.88,8.6,1.27,9.37,5.63,16.16,7.87,8.46,2.79,13.39-2,14.68-6.27,1.78-5.89-3.72-12.97-17.38-14.3s-28.43,6.75-33.56,11.82Z"/><path class="cls-6" d="m336.96,98.6c-.16-3.74-2.78,4.95-14.16,14.29-6.72,5.52-10.47,3.15-16.69,6.67-7.75,4.39-7.52,11.26-5.22,15.09,3.17,5.28,12.11,5.96,22.27-3.26,10.16-9.21,14.11-25.59,13.79-32.8Z"/><path class="cls-1" d="m749.14,90.95c.87-2.94,1.23,4.48,8.43,14.14,4.25,5.71,7.69,4.57,11.94,8.59,5.29,5.02,3.75,10.43,1.17,13.02-3.56,3.57-10.79,2.34-17.05-6.98s-6.16-23.11-4.49-28.77Z"/><path class="cls-6" d="m525.51,84.04c.78,5.19,3.15-7.31,17.67-22.03,8.57-8.69,14.15-5.93,22.32-11.76,10.18-7.27,8.85-16.82,5.08-21.83-5.2-6.91-17.78-6.54-30.62,7.81-12.84,14.35-15.95,37.79-14.45,47.81Z"/><path class="cls-7" d="m62.51,67.18c3.12.52-3.61-3.16-9.36-14.21-3.4-6.52-.78-9.21-2.62-14.98-2.28-7.18-8.01-8.19-11.58-6.95-4.92,1.7-7.04,8.98-1.19,19,5.85,10.02,18.72,16.14,24.74,17.13Z"/><path class="cls-9" d="m923.85,106.53c-2.43,1.05,3.39.64,10.17,6,4,3.17,2.68,6.3,5.35,9.64,3.33,4.15,7.8,2.26,10.16-.27,3.26-3.48,3.17-9.72-3.46-14.29s-17.54-3.12-22.23-1.08Z"/><path class="cls-9" d="m1780.3,86.36c-9.35,3.23,14.63,3.32,46.87,25.13,19.04,12.88,15.86,24.16,29.47,37.28,16.96,16.35,34.2,10.59,42.17,1.89,11-12,6-35.17-25-54-31-18.83-75.47-16.53-93.51-10.3Z"/><path class="cls-3" d="m1697.08,89.36c-9.35-3.23,14.63-3.32,46.87-25.13,19.04-12.88,15.86-24.16,29.47-37.28,16.96-16.35,34.2-10.59,42.17-1.89,11,12,6,35.17-25,54-31,18.83-75.47,16.53-93.51,10.3Z"/><path class="cls-4" d="m1769.06,97.52c-3.54,1.22,5.53,1.26,17.73,9.51,7.2,4.87,6,9.14,11.15,14.1,6.41,6.18,12.93,4.01,15.95.71,4.16-4.54,2.27-13.3-9.46-20.42-11.72-7.12-28.55-6.25-35.37-3.9Z"/><path class="cls-6" d="m1801.43,76.72c-3.54-1.22,5.53-1.26,17.73-9.51,7.2-4.87,6-9.14,11.15-14.1,6.41-6.18,12.93-4.01,15.95-.71,4.16,4.54,2.27,13.3-9.46,20.42-11.72,7.12-28.55,6.25-35.37,3.9Z"/><path class="cls-7" d="m1663.15,86.82c-2.99-7.42,9.79,7.17,40.23,15.29,17.97,4.8,23.17-3.13,38.41-1.78,18.98,1.68,24.62,15.27,23.53,24.76-1.49,13.09-18.3,22.32-46.25,13.38-27.95-8.94-50.15-37.33-55.91-51.65Z"/><path class="cls-5" d="m1841.29,80.8c-4.45-1.95,7.29-1.04,23.94-10.43,9.83-5.55,8.72-11.19,15.91-17.07,8.95-7.32,17.16-3.82,20.72.76,4.91,6.31,1.53,17.45-14.39,25.43-15.92,7.98-37.6,5.08-46.18,1.31Z"/><path class="cls-1" d="m1550.72,83.2c-2.17,4.8-1.04-7.91-11.03-26.06-5.9-10.72-12.03-9.58-18.31-17.44-7.83-9.79-3.94-18.64,1.06-22.44,6.9-5.24,18.93-1.46,27.39,15.89,8.46,17.35,5.06,40.8.88,50.05Z"/><path class="cls-2" d="m1650.64,88.44c-2.26,8.17,9.45-8.71,40.5-20.87,18.34-7.18,24.75.54,40.62-2.69,19.77-4.03,24.08-18.99,21.81-28.84-3.13-13.59-21.91-21.31-50.25-8.58-28.34,12.73-48.31,45.23-52.68,60.98Z"/><path class="cls-8" d="m1559.47,85.21c-9.35,3.23,14.63,3.32,46.87,25.13,19.04,12.88,15.86,24.16,29.47,37.28,16.96,16.35,34.2,10.59,42.17,1.89,11-12,6-35.17-25-54-31-18.83-75.47-16.53-93.51-10.3Z"/><path class="cls-6" d="m1641.21,73.3c-3.56,1.16,3.65-4.34,8.39-18.28,2.8-8.23-.73-10.91.37-17.97,1.38-8.8,7.89-11,12.29-10.2,6.06,1.11,9.84,9.24,4.79,21.99-5.05,12.76-18.98,22.21-25.84,24.46Z"/><path class="cls-4" d="m1645.53,80.48c3.59-1.04-5.46-1.53-17.23-10.38-6.95-5.23-5.54-9.43-10.43-14.64-6.1-6.49-12.72-4.64-15.9-1.51-4.38,4.33-2.93,13.17,8.43,20.87s28.2,7.66,35.13,5.65Z"/><path class="cls-7" d="m1553.5,90.3c9.18-1.93-13.37-4.85-41.12-29.17-16.39-14.36-12.07-24.59-23.32-38.54-14.02-17.37-30.92-13.99-39.44-6.75-11.76,9.99-9.78,32.37,17.15,53.74,26.93,21.37,69.04,24.44,86.73,20.71Z"/><path class="cls-9" d="m1559.79,76.78c-.35,7.69,6.6-9.62,31.63-26.68,14.78-10.07,22.02-4.53,35.41-10.61,16.69-7.57,17.47-21.69,13.47-29.95-5.52-11.4-23.71-14.43-46.22,2.58-22.51,17.01-33.61,49.83-34.28,64.66Z"/><path class="cls-2" d="m1686.55,129.57c-.03-3.36,2.48,3.61,12.17,8.71,5.72,3.01,8.68-.13,13.91,1.25,6.52,1.73,6.62,7.87,4.91,11.9-2.36,5.56-9.63,8.65-18.32,3.33s-12.61-18.72-12.66-25.19Z"/><path class="cls-2" d="m1457.81,80.96c-.24,3.05-2.13-4.12-11.18-12.09-5.34-4.7-8.47-2.87-13.46-5.93-6.22-3.81-5.83-9.42-3.84-12.49,2.74-4.23,10.07-4.53,18.12,3.29s10.82,21.33,10.36,27.22Z"/><path class="cls-8" d="m1458.53,88.9c7.06-.71-9.67-4.74-28.58-25.3-11.17-12.15-7.08-19.49-14.42-30.91-9.14-14.22-22.13-13.05-29.14-8.29-9.67,6.56-10,23.57,8.53,41.85,18.53,18.28,49.98,24.02,63.6,22.65Z"/><path class="cls-3" d="m1463.91,82.44c-.41-7.87,6.82,9.81,32.55,27.09,15.19,10.21,22.57,4.49,36.32,10.62,17.13,7.64,18.02,22.08,13.98,30.57-5.57,11.7-24.17,14.92-47.32-2.33-23.15-17.26-34.73-50.78-35.52-65.95Z"/><path class="cls-4" d="m1414.58,92.73c-3.54,1.22,5.53,1.26,17.73,9.51,7.2,4.87,6,9.14,11.15,14.1,6.41,6.18,12.93,4.01,15.95.71,4.16-4.54,2.27-13.3-9.46-20.42-11.72-7.12-28.55-6.25-35.37-3.9Z"/><path class="cls-9" d="m1345.8,79.41c-7.88.1,10.23,6.17,29.14,30.72,11.17,14.5,5.94,22.23,12.95,35.55,8.73,16.6,23.2,16.56,31.41,11.97,11.32-6.32,13.33-25.09-5.39-47.07-18.72-21.99-52.92-31.37-68.11-31.17Z"/><path class="cls-6" d="m1429.06,109.33c.67-3.68,2.07,5.28,12.07,16.09,5.9,6.39,9.94,4.55,15.62,8.9,7.08,5.41,5.91,12.18,3.11,15.66-3.86,4.8-12.81,4.24-21.61-6.28s-10.47-27.28-9.17-34.38Z"/><path class="cls-3" d="m1330.97,90.86c1.08,8.77-8.41-10.44-38.57-27.75-17.81-10.23-25.61-3.24-41.49-9.02-19.78-7.19-21.92-23.29-18.07-33.11,5.31-13.54,25.87-18.62,53.15-1.13,27.28,17.48,42.89,54.08,44.97,71Z"/><path class="cls-1" d="m1364.36,78.16c3.7-.53-5.2-2.27-15.62-12.67-6.16-6.14-4.17-10.1-8.3-15.94-5.14-7.28-11.95-6.37-15.53-3.7-4.94,3.68-4.73,12.64,5.45,21.84s26.86,11.51,34,10.48Z"/><path class="cls-5" d="m1301.67,80.09c-.62-5.39,5.1,6.45,23.51,17.23,10.87,6.37,15.7,2.13,25.4,5.76,12.09,4.52,13.32,14.41,10.9,20.41-3.33,8.28-15.97,11.28-32.61.41-16.64-10.87-26.02-33.41-27.2-43.8Z"/><path class="cls-1" d="m1365.35,101.61c-2.35-1.96,1.46,4.41.82,16.44-.37,7.11-3.87,8.06-5.18,13.77-1.62,7.11,2.66,10.76,6.24,11.48,4.94,1,10.28-4.03,10.32-15.26s-7.68-22.65-12.21-26.44Z"/><path class="cls-1" d="m1872.75,91.56c-2.83,1.17,4.58.76,14.94,6.92,6.12,3.64,5.33,7.18,9.78,10.99,5.53,4.75,10.76,2.66,13.07-.17,3.18-3.91,1.22-10.98-8.7-16.24s-23.62-3.75-29.08-1.5Z"/><path class="cls-8" d="m1211.3,84.84c9.49-2.78-14.45-4.01-45.63-27.32-18.41-13.77-14.7-24.88-27.67-38.63-16.17-17.13-33.66-12.19-42.04-3.88-11.55,11.47-7.65,34.85,22.42,55.12s74.6,20.07,92.91,14.71Z"/><path class="cls-4" d="m1294.56,79.46c9.23,1.56-13.14,5.37-39.84,30.74-15.77,14.98-11.05,25.01-21.71,39.38-13.29,17.89-30.27,15.2-39.07,8.31-12.13-9.49-11.06-31.9,14.95-54.29,26.01-22.39,67.88-27.15,85.68-24.14Z"/><path class="cls-2" d="m1294.22,88.91c2.69-5.29.77,8.97,11.07,29.96,6.09,12.39,13.06,11.43,19.74,20.61,8.32,11.44,3.47,21.21-2.37,25.24-8.05,5.55-21.41.66-30.05-19.34-8.64-19.99-3.59-46.25,1.61-56.47Z"/><path class="cls-9" d="m1266.98,75.37c6.77-1.33-9.79-3.7-29.99-21.87-11.93-10.73-8.65-18.22-16.8-28.59-10.16-12.93-22.62-10.6-28.97-5.35-8.75,7.24-7.51,23.74,12.11,39.72,19.62,15.99,50.59,18.66,63.65,16.08Z"/><path class="cls-3" d="m1156.42,89.23c7.87.29-10.38,5.92-29.89,29.99-11.53,14.22-6.49,22.08-13.82,35.22-9.14,16.38-23.6,15.98-31.69,11.2-11.16-6.6-12.71-25.41,6.55-46.93,19.26-21.52,53.68-30.05,68.86-29.49Z"/><path class="cls-1" d="m1119.48,77.75c3.01-.55-4.32-1.71-13.15-9.9-5.22-4.84-3.71-8.14-7.25-12.8-4.42-5.8-9.96-4.86-12.81-2.57-3.93,3.15-3.5,10.48,5.1,17.7,8.59,7.23,22.31,8.62,28.12,7.57Z"/><path class="cls-5" d="m1210.82,91.1c4.55.26-6.07,3.3-17.64,17.01-6.83,8.09-4.01,12.7-8.41,20.22-5.48,9.37-13.84,8.97-18.47,6.11-6.38-3.95-7.06-14.85,4.33-27.07,11.39-12.23,31.4-16.77,40.18-16.26Z"/><path class="cls-6" d="m1283.34,93.39c3.24-1.87-2.68,5-4.47,19.61-1.05,8.63,2.96,10.52,3.32,17.66.45,8.9-5.47,12.39-9.93,12.5-6.16.16-11.52-7.02-9.2-20.54s14.02-25.64,20.28-29.24Z"/><path class="cls-6" d="m1183.87,63.75c-1.13,3.57-1.4-5.5-9.98-17.47-5.06-7.07-9.3-5.75-14.39-10.76-6.35-6.25-4.35-12.82-1.14-15.93,4.43-4.28,13.24-2.62,20.67,8.9,7.43,11.53,7.01,28.37,4.84,35.25Z"/><path class="cls-7" d="m1117.64,94.85c9.31-1.12-12.89-6-38.4-32.66-15.07-15.75-9.86-25.56-19.85-40.44-12.44-18.54-29.57-16.65-38.7-10.18-12.59,8.92-12.59,31.39,12.37,55.04,24.95,23.65,66.63,30.41,84.58,28.24Z"/><path class="cls-1" d="m1542.61,97.14c1.62-2.6-4.17,2.05-16.17,3.08-7.09.61-8.52-2.72-14.35-3.23-7.26-.63-10.29,4.11-10.51,7.76-.31,5.03,5.41,9.63,16.53,8.12,11.13-1.51,21.38-10.72,24.5-15.73Z"/><path class="cls-5" d="m1551.06,97.05c1.65-4.57,1.53,7.21,12.02,23.19,6.2,9.44,11.75,7.95,18.1,14.72,7.91,8.44,4.97,16.86.64,20.72-5.97,5.32-17.31,2.7-26.34-12.64-9.04-15.35-7.6-37.17-4.42-45.98Z"/><path class="cls-1" d="m1765.91,105.92c-.17-4.85,4.1,6.12,19.77,17.06,9.26,6.46,13.87,3.02,22.28,6.95,10.48,4.9,10.87,13.81,8.29,19-3.57,7.15-15.07,8.94-29.16-1.96-14.09-10.9-20.86-31.69-21.18-41.06Z"/><path class="cls-2" d="m1096.32,104.22c5.85,2.41-9.47,1.57-30.88,14.3-12.64,7.52-11.03,14.84-20.22,22.71-11.44,9.81-22.24,5.48-27.01-.37-6.58-8.08-2.51-22.69,17.99-33.55,20.5-10.87,48.82-7.73,60.11-3.08Z"/><path class="cls-5" d="m1038.18,93.33c1.36,5.97-6.52-6.6-28.51-16.41-12.99-5.79-17.87-.44-29.21-3.3-14.13-3.57-16.73-14.5-14.77-21.54,2.71-9.7,16.52-14.64,36.53-4.51,20.02,10.13,33.33,34.25,35.96,45.75Z"/><path class="cls-1" d="m1028.1,94.89c5.26-.02-6.76,4.24-19.11,20.87-7.3,9.82-3.71,14.92-8.24,23.91-5.64,11.19-15.31,11.34-20.85,8.37-7.64-4.09-9.2-16.61,3.05-31.52,12.25-14.91,34.99-21.58,45.15-21.63Z"/><path class="cls-6" d="m1016.2,92.03c2.66,2.63-5.53-1.27-20.1.88-8.6,1.27-9.37,5.63-16.16,7.87-8.46,2.79-13.39-2-14.68-6.27-1.78-5.89,3.72-12.97,17.38-14.3s28.43,6.75,33.56,11.82Z"/><path class="cls-6" d="m1574.97,98.78c.16-3.74,2.78,4.95,14.16,14.29,6.72,5.52,10.47,3.15,16.69,6.67,7.75,4.39,7.52,11.26,5.22,15.09-3.17,5.28-12.11,5.96-22.27-3.26-10.16-9.21-14.11-25.59-13.79-32.8Z"/><path class="cls-1" d="m1162.79,91.13c-.87-2.94-1.23,4.48-8.43,14.14-4.25,5.71-7.69,4.57-11.94,8.59-5.29,5.02-3.75,10.43-1.17,13.02,3.56,3.57,10.79,2.34,17.05-6.98s6.16-23.11,4.49-28.77Z"/><path class="cls-6" d="m1386.42,84.22c-.78,5.19-3.15-7.31-17.67-22.03-8.57-8.69-14.15-5.93-22.32-11.76-10.18-7.27-8.85-16.82-5.08-21.83,5.2-6.91,17.78-6.54,30.62,7.81,12.84,14.35,15.95,37.79,14.45,47.81Z"/><path class="cls-7" d="m1849.42,67.36c-3.12.52,3.61-3.16,9.36-14.21,3.4-6.52.78-9.21,2.62-14.98,2.28-7.18,8.01-8.19,11.58-6.95,4.92,1.7,7.04,8.98,1.19,19s-18.72,16.14-24.74,17.13Z"/><path class="cls-9" d="m988.08,106.71c2.43,1.05-3.39.64-10.17,6-4,3.17-2.68,6.3-5.35,9.64-3.33,4.15-7.8,2.26-10.16-.27-3.26-3.48-3.17-9.72,3.46-14.29,6.62-4.57,17.54-3.12,22.23-1.08Z"/></svg>