<?xml version="1.0" encoding="UTF-8"?><svg id="Layer_1" xmlns="http://www.w3.org/2000/svg" width="229.61" height="226.76" viewBox="0 0 229.61 226.76"><defs><style>.cls-1{fill:#c36b2c;}.cls-2{fill:#8ea348;}.cls-3{fill:#bd96c5;}.cls-4{fill:#aea296;}.cls-5{fill:#a49e46;}.cls-6{fill:#c8dbe1;}.cls-7{fill:#6d93ba;}.cls-8{fill:#725078;}</style></defs><path class="cls-8" d="m109.85,123.03c2.99-7.42-9.79,7.17-40.23,15.29-17.97,4.8-23.17-3.13-38.41-1.78-18.98,1.68-24.62,15.27-23.53,24.76,1.49,13.09,18.3,22.32,46.25,13.38,27.95-8.94,50.15-37.33,55.91-51.65Z"/><path class="cls-5" d="m105.09,115.24c7.13-3.65-12.1-1-40.4-14.82-16.72-8.16-15.44-17.56-27.84-26.53-15.44-11.17-28.6-4.6-34,3.27-7.45,10.86-.81,28.86,26.16,40.43,26.97,11.57,62.34,4.68,76.08-2.35Z"/><path class="cls-6" d="m108.31,107.72c7.69,2.21-8.15-9-19.37-38.43-6.63-17.38.72-23.37-2.2-38.39-3.64-18.71-17.73-22.9-27.06-20.85-12.86,2.84-20.31,20.51-8.53,47.39s42.32,46.02,57.16,50.27Z"/><path class="cls-3" d="m116.7,103c3.17,7.35,1.8-12,17.46-39.33,9.25-16.14,18.54-14.25,28.31-26.03,12.17-14.67,6.48-28.23-1.02-34.14-10.35-8.15-28.74-2.72-42.07,23.43-13.33,26.15-8.79,61.9-2.68,76.07Z"/><path class="cls-4" d="m125.31,103.32c-3.43,7.23,10.2-6.58,41.06-12.87,18.23-3.72,22.95,4.51,38.24,4.07,19.05-.55,25.48-13.78,24.96-23.31-.71-13.15-16.94-23.37-45.38-16.11-28.43,7.26-52.28,34.28-58.89,48.23Z"/><path class="cls-7" d="m119.83,126.4c-2.31-7.66-3.15,11.72-21.8,37.1-11.02,14.99-20.04,12.06-31.07,22.65-13.75,13.2-9.64,27.32-2.86,34.04,9.36,9.27,28.25,5.96,44.45-18.51,16.2-24.47,15.74-60.5,11.28-75.28Z"/><path class="cls-1" d="m128.12,121.91c-7.17-3.56,6.39,10.32,12.12,41.29,3.38,18.29-4.93,22.86-4.76,38.16.2,19.06,13.31,25.73,22.86,25.38,13.16-.47,23.68-16.51,16.94-45.07-6.74-28.56-33.32-52.89-47.15-59.76Z"/><path class="cls-2" d="m129.88,112.11c-7.78,1.9,11.53,3.78,35.87,23.78,14.37,11.81,10.96,20.66,20.93,32.25,12.43,14.45,26.75,11.11,33.83,4.7,9.77-8.84,7.48-27.88-16.08-45.39-23.55-17.51-59.56-19-74.56-15.34Z"/></svg>